#!OML:ASF F:\VICON\USERDATA\INSTALL\rory3\rory3.ASF
:FULLY-SPECIFIED
:DEGREES
10
root 1.2639800000000019 17.8149 -25.2414 -1.6161200000000013 1.929929999999991 2.543550000000008
lfemur 7.683140000000019 -1.326059999999998 -27.00359999999999
ltibia 15.418000000000013
lfoot -17.66920000000001 -4.438699999999997
ltoes 4.618559999999986
rfemur -30.206300000000027 8.618459999999999 14.876800000000017
rtibia 22.53590000000003
rfoot -6.097029999999995 -14.817399999999989
rtoes 10.762399999999984
lowerback 1.0 -1.4077700000000035 -3.996690000000005
upperback -0.12328700000000004 -2.283680000000003 1.6248
thorax -6.07303 -0.9747829999999993 4.332139999999997
lowerneck -15.263700000000002 -2.4727199999999994 -2.5908400000000014
upperneck 23.307 -2.6390500000000023 -0.6662230000000007
head 9.95909 -1.5318600000000004 -0.14162900000000003
lclavicle -5.665359999999996e-15 5.5659700000000055e-15
lhumerus -22.652399999999993 -4.643460000000002 80.1862
lradius 33.6049
lwrist 8.252290000000006
lhand -31.858700000000006 22.640799999999995
lfingers 7.12502
lthumb -5.112270000000006 52.5591
rclavicle -5.665359999999996e-15 5.5659700000000055e-15
rhumerus -35.830000000000005 -25.486200000000004 -71.6415
rradius 22.8759
rwrist 7.280940000000002
rhand -19.644600000000004 1.0
rfingers 7.12502
rthumb 6.682900000000003 -8.890929999999999
11
root 1.2339599999999997 17.7502 -24.729199999999956 -1.3283399999999996 2.109950000000005 2.381310000000012
lfemur 9.319760000000027 -1.4438900000000017 -26.92250000000001
ltibia 15.344199999999997
lfoot -18.06709999999997 -3.6948700000000017
ltoes 4.022790000000009
rfemur -30.24550000000003 10.574100000000008 13.899600000000026
rtibia 18.4798
rfoot -9.02822 -15.790599999999984
rtoes 4.632010000000002
lowerback 1.0 -1.612929999999996 -3.8728699999999887
upperback -0.11930800000000019 -2.51502 1.8449700000000002
thorax -5.838310000000001 -1.0966699999999978 4.513289999999994
lowerneck -15.2116 -2.3326100000000003 -2.909060000000002
upperneck 22.9951 -2.38284 -0.5800020000000011
head 9.84202 -1.4295500000000003 -0.021775899999999987
lclavicle -3.791819999999995e-14 -2.711709361697228e-31
lhumerus -22.259599999999985 -4.475070000000017 79.9983
lradius 35.03509999999999
lwrist 8.77729000000001
lhand -31.207699999999992 20.68959999999999
lfingers 7.12502
lthumb -4.483699999999999 50.62220000000001
rclavicle -3.791819999999995e-14 -2.711709361697228e-31
rhumerus -36.24530000000001 -26.2258 -70.7413
rradius 21.975099999999994
rwrist 8.309310000000005
rhand -19.608299999999996 1.0
rfingers 7.12502
rthumb 6.7179800000000025 -9.905499999999996
12
root 1.1899100000000007 17.6713 -24.212799999999973 -1.6317999999999984 1.7441000000000055 2.0899700000000085
lfemur 11.256600000000013 -1.6475899999999988 -26.7281
ltibia 16.017099999999985
lfoot -18.644299999999973 -2.6598499999999996
ltoes 1.3404800000000017
rfemur -29.995299999999965 9.478780000000008 14.891300000000012
rtibia 18.07680000000002
rfoot -9.19412 -12.225500000000007
rtoes 2.71641
lowerback 1.0 -1.4999300000000024 -3.5932399999999904
upperback -0.027925799999999446 -2.3458400000000035 1.9468399999999997
thorax -6.200980000000001 -1.01035 4.4702499999999965
lowerneck -15.9324 -2.2436000000000003 -2.749680000000001
upperneck 22.8076 -2.2381600000000006 -0.7181420000000003
head 9.90573 -1.36263 -0.08507249999999997
lclavicle -3.7967899999999994e-14 2.4649300000000017e-14
lhumerus -21.965900000000005 -4.902569999999993 79.8819
lradius 36.1699
lwrist 9.424600000000007
lhand -31.675799999999995 23.2457
lfingers 7.12502
lthumb -4.935730000000007 53.1682
rclavicle -3.7967899999999994e-14 2.4649300000000017e-14
rhumerus -36.87250000000002 -28.1632 -69.3087
rradius 20.815400000000007
rwrist 10.143600000000006
rhand -19.623799999999996 1.0
rfingers 7.12502
rthumb 6.702980000000003 -9.505929999999996
13
root 1.1272099999999998 17.6077 -23.671299999999974 -1.5792099999999991 1.6665299999999987 2.188470000000009
lfemur 12.638699999999975 -2.3060000000000005 -26.776099999999992
ltibia 17.030399999999972
lfoot -18.693800000000014 -2.4658300000000004
ltoes -1.5328499999999967
rfemur -30.48919999999997 8.419140000000006 15.498899999999988
rtibia 20.529900000000026
rfoot -7.602989999999998 -9.407979999999997
rtoes 5.281280000000001
lowerback 1.0 -1.8459799999999995 -4.337620000000001
upperback -0.5037489999999989 -2.893509999999991 2.41066
thorax -6.785979999999998 -1.2180399999999976 5.511299999999992
lowerneck -14.7097 -1.9348400000000012 -3.1465200000000024
upperneck 21.8881 -1.648570000000002 -1.1741100000000015
head 9.34818 -1.1669500000000006 -0.08132030000000001
lclavicle -5.864149999999993e-15 -9.541660000000018e-15
lhumerus -23.588799999999996 -3.471679999999985 79.9701
lradius 37.277200000000015
lwrist 9.771839999999994
lhand -32.16969999999999 23.0765
lfingers 7.12502
lthumb -5.4125400000000035 52.9873
rclavicle -5.864149999999993e-15 -9.541660000000018e-15
rhumerus -37.788600000000024 -27.52830000000001 -68.18229999999998
rradius 20.139199999999995
rwrist 10.684899999999992
rhand -19.0483 1.0
rfingers 7.12502
rthumb 7.25852 -8.157569999999998
14
root 1.0407499999999996 17.5647 -23.083900000000007 -1.6028999999999998 1.965589999999995 2.1643200000000005
lfemur 13.673700000000018 -2.9280999999999997 -26.37470000000002
ltibia 18.93800000000002
lfoot -17.950299999999988 -3.54115
ltoes -4.172589999999999
rfemur -30.631599999999978 7.980460000000005 16.269299999999994
rtibia 24.25059999999999
rfoot -6.179790000000002 -8.922529999999998
rtoes 2.0873100000000018
lowerback 1.0 -1.7072400000000016 -4.198600000000004
upperback -0.04285529999999971 -2.7055500000000006 2.0959899999999996
thorax -6.340629999999998 -1.1608800000000015 5.047549999999991
lowerneck -17.1712 -2.119359999999999 -2.5239899999999986
upperneck 22.3617 -1.9935700000000036 -1.0752600000000025
head 9.97111 -1.268860000000001 -0.22614899999999993
lclavicle -4.795679999999997e-14 1.9878500000000046e-14
lhumerus -22.68829999999999 -4.531329999999992 79.8529
lradius 37.60559999999998
lwrist 9.953149999999997
lhand -31.02649999999999 18.103400000000008
lfingers 7.12502
lthumb -4.308709999999996 48.039600000000014
rclavicle -4.795679999999997e-14 1.9878500000000046e-14
rhumerus -38.16610000000001 -31.583599999999983 -66.6839
rradius 19.220399999999994
rwrist 13.593400000000017
rhand -19.505600000000005 1.0
rfingers 7.12502
rthumb 6.8170699999999975 -8.98883
15
root 0.9604210000000009 17.6062 -22.47729999999995 -1.6641299999999997 2.423740000000003 1.6562999999999937
lfemur 14.03750000000004 -4.093780000000003 -25.59209999999999
ltibia 21.918499999999995
lfoot -16.067899999999995 -4.871700000000004
ltoes -9.293489999999993
rfemur -30.52199999999997 7.048350000000001 17.63239999999999
rtibia 27.374299999999987
rfoot -2.134689999999993 -8.522289999999998
rtoes 2.0691999999999986
lowerback 1.0 -1.8474000000000022 -3.711490000000006
upperback -0.1811450000000005 -2.820090000000003 2.1384100000000004
thorax -6.430230000000001 -1.226500000000001 4.833270000000001
lowerneck -17.346700000000002 -2.2087299999999996 -2.1430700000000007
upperneck 22.5392 -2.1517199999999983 -1.347410000000001
head 10.0598 -1.3429200000000003 -0.41051199999999977
lclavicle 3.051340000000003e-14 -8.74653e-15
lhumerus -23.334899999999998 -4.731370000000008 80.0845
lradius 37.129200000000004
lwrist 10.087199999999982
lhand -32.541899999999984 22.4188
lfingers 7.12502
lthumb -5.771900000000002 52.3202
rclavicle 3.051340000000003e-14 -8.74653e-15
rhumerus -39.48449999999998 -33.71099999999999 -65.0641
rradius 18.662400000000016
rwrist 14.013900000000016
rhand -19.5753 1.0
rfingers 7.12502
rthumb 6.749830000000001 -8.194379999999999
16
root 0.915095 17.6575 -21.86689999999996 -2.0656100000000004 1.7768599999999954 0.5923940000000001
lfemur 13.440899999999967 -4.60684 -24.5379
ltibia 27.2227
lfoot -13.094000000000012 -6.242250000000004
ltoes -16.3266
rfemur -29.6269 5.87345 19.8902
rtibia 29.464599999999994
rfoot -0.8573550000000054 -5.302350000000001
rtoes 3.42351
lowerback 1.0 -2.098869999999997 -2.763069999999996
upperback -0.5783170000000009 -2.9879499999999943 2.7458600000000013
thorax -6.968300000000002 -1.3072700000000008 4.998820000000006
lowerneck -16.4443 -1.7604300000000013 -2.7412299999999994
upperneck 22.9219 -1.329799999999996 -1.5627499999999994
head 10.0305 -1.0451000000000001 -0.26872699999999977
lclavicle 1.1057400000000003e-14 -7.951390000000009e-16
lhumerus -24.98130000000001 -2.334049999999988 80.6116
lradius 35.817099999999975
lwrist 8.684909999999995
lhand -32.60170000000001 23.4094
lfingers 7.12502
lthumb -5.829669999999995 53.3092
rclavicle 1.1057400000000003e-14 -7.951390000000009e-16
rhumerus -40.420000000000016 -33.19469999999998 -63.865300000000005
rradius 18.2933
rwrist 13.854399999999998
rhand -21.199800000000007 1.0
rfingers 7.12502
rthumb 5.18142 -9.693889999999996
17
root 0.8645890000000005 17.718 -21.24700000000003 -2.3690499999999997 0.8685770000000048 -0.4070319999999992
lfemur 11.642100000000003 -3.4737399999999994 -22.8101
ltibia 33.6608
lfoot -6.561749999999999 -10.514700000000012
ltoes -16.5313
rfemur -28.315799999999985 5.35068 22.036799999999996
rtibia 31.413499999999996
rfoot -1.076030000000011 -4.374660000000005
rtoes 6.470060000000004
lowerback 1.0 -1.8762400000000032 -1.5005000000000037
upperback -0.5096880000000006 -2.506209999999996 2.839039999999997
thorax -6.81186 -1.120479999999999 4.2807300000000055
lowerneck -16.2451 -1.8555299999999977 -2.764759999999999
upperneck 22.8948 -1.5168700000000017 -1.36136
head 9.98533 -1.1091000000000009 -0.21682100000000004
lclavicle -1.3119799999999997e-14 3.816670000000006e-14
lhumerus -25.9613 -1.423509999999995 80.8814
lradius 34.3969
lwrist 7.506430000000005
lhand -32.88850000000001 24.5856
lfingers 7.12502
lthumb -6.106559999999993 54.4776
rclavicle -1.3119799999999997e-14 3.816670000000006e-14
rhumerus -41.020600000000016 -34.257400000000004 -63.2187
rradius 18.02360000000001
rwrist 13.863599999999987
rhand -21.74749999999999 1.0
rfingers 7.12502
rthumb 4.652579999999997 -10.410499999999999
